<?xml version="1.0"?>
<svg xmlns="http://www.w3.org/2000/svg" height="512px" viewBox="0 0 512 512" width="512px" class=""><g><path d="m503.464844 494.933594h-102.398438v-469.332032c0-14.140624-11.460937-25.601562-25.601562-25.601562h-238.929688c-14.140625 0-25.601562 11.460938-25.601562 25.601562v469.332032h-102.398438c-4.714844 0-8.535156 3.820312-8.535156 8.53125 0 4.714844 3.820312 8.535156 8.535156 8.535156h494.929688c4.714844 0 8.535156-3.820312 8.535156-8.535156 0-4.710938-3.820312-8.53125-8.535156-8.53125zm-153.597656-128h-110.933594v-264.535156c0-9.425782-7.640625-17.066407-17.066406-17.066407h-25.601563c-9.425781 0-17.066406 7.640625-17.066406 17.066407v264.535156h-17.066407v-315.734375h187.734376zm-153.601563-264.535156h25.601563v332.800781h-25.601563zm-34.132813 281.601562h17.066407v51.199219c0 9.425781 7.640625 17.066406 17.066406 17.066406h25.601563c9.425781 0 17.066406-7.640625 17.066406-17.066406v-51.199219h110.933594v110.933594h-187.734376zm192.734376-349.867188h-197.734376l-17.066406-17.066406h231.867188zm-226.867188-5 17.066406 17.066407v448.734375h-17.066406zm238.933594 465.800782v-448.734375l17.066406-17.066407v465.800782zm0 0" data-original="#000000" class="active-path"/><path d="m298.667969 281.601562h17.066406v17.066407c0 4.710937 3.820313 8.53125 8.53125 8.53125 4.714844 0 8.535156-3.820313 8.535156-8.53125v-51.203125c0-4.710938-3.820312-8.53125-8.535156-8.53125-4.710937 0-8.53125 3.820312-8.53125 8.53125v17.070312h-17.066406c-4.714844 0-8.535157 3.820313-8.535157 8.53125 0 4.714844 3.820313 8.535156 8.535157 8.535156zm0 0" data-original="#000000" class="active-path"/></g> </svg>
